<?xml version="1.0" standalone="no"?>
<!DOCTYPE svg PUBLIC "-//W3C//DTD SVG 1.1//EN" "http://www.w3.org/Graphics/SVG/1.1/DTD/svg11.dtd">
<svg version="1.1" xmlns="http://www.w3.org/2000/svg" viewBox="0 0 754.977931383055 479.92499677844535" width="754.977931383055" height="479.92499677844535" filter="invert(93%) hue-rotate(180deg)"><!-- svg-source:excalidraw --><metadata></metadata><defs><style class="style-fonts">
      </style></defs><rect x="0" y="0" width="754.977931383055" height="479.92499677844535" fill="#ffffff"></rect><g stroke-linecap="round"><g transform="translate(41.830236866572704 469.368501039502) rotate(0 0 -229.16666666666652)"><path d="M0.95 0.31 C-1.9 -142.86, -0.38 -283.46, 0.98 -459.37 M0.8 0.56 C-1.49 -141.17, -2.77 -283.11, 0.64 -457.92" stroke="#1e1e1e" stroke-width="1" fill="none"></path></g><g transform="translate(41.830236866572704 469.368501039502) rotate(0 0 -229.16666666666652)"><path d="M9.9 -433.99 C6.05 -443.2, 5.13 -449.7, 1.69 -459.02 M9.75 -433.73 C6.97 -441.28, 3.06 -449.06, 1.33 -457.48" stroke="#1e1e1e" stroke-width="1" fill="none"></path></g><g transform="translate(41.830236866572704 469.368501039502) rotate(0 0 -229.16666666666652)"><path d="M-7.19 -434.21 C-5.77 -443.39, -1.42 -449.82, 1.69 -459.02 M-7.35 -433.94 C-4.85 -441.43, -3.48 -449.15, 1.33 -457.48" stroke="#1e1e1e" stroke-width="1" fill="none"></path></g></g><mask></mask><g stroke-linecap="round"><g transform="translate(10.163570199906644 437.7018343728341) rotate(0 354.1666666666665 -0.8333333333334849)"><path d="M-0.16 -1.3 C228.86 -2.15, 456.29 -2.89, 708.47 -0.85 M0.6 0.26 C214.25 -4.01, 430.06 -4.02, 708.41 -1.66" stroke="#1e1e1e" stroke-width="1" fill="none"></path></g><g transform="translate(10.163570199906644 437.7018343728341) rotate(0 354.1666666666665 -0.8333333333334849)"><path d="M684.66 5.13 C693.81 3.17, 701.01 0.2, 708.59 -0.64 M685.61 7.08 C691.31 3.89, 699.76 1.96, 708.51 -1.64" stroke="#1e1e1e" stroke-width="1" fill="none"></path></g><g transform="translate(10.163570199906644 437.7018343728341) rotate(0 354.1666666666665 -0.8333333333334849)"><path d="M684.77 -11.97 C693.97 -8.43, 701.14 -5.9, 708.59 -0.64 M685.72 -10.02 C691.53 -8.03, 699.95 -4.77, 708.51 -1.64" stroke="#1e1e1e" stroke-width="1" fill="none"></path></g></g><mask></mask><g stroke-linecap="round"><g transform="translate(72.9657555611584 435.15832120378764) rotate(0 0.5555555555556566 -110.8730158730159)"><path d="M0 0 C0.29 -57.2, 0.57 -114.41, 1.11 -221.75 M0 0 C0.4 -79.67, 0.8 -159.34, 1.11 -221.75" stroke="#1e1e1e" stroke-width="1" fill="none"></path></g><g transform="translate(72.9657555611584 435.15832120378764) rotate(0 0.5555555555556566 -110.8730158730159)"><path d="M9.54 -198.21 C7.37 -204.28, 5.19 -210.35, 1.11 -221.75 M9.54 -198.21 C6.51 -206.67, 3.48 -215.12, 1.11 -221.75" stroke="#1e1e1e" stroke-width="1" fill="none"></path></g><g transform="translate(72.9657555611584 435.15832120378764) rotate(0 0.5555555555556566 -110.8730158730159)"><path d="M-7.56 -198.3 C-5.32 -204.35, -3.08 -210.4, 1.11 -221.75 M-7.56 -198.3 C-4.44 -206.72, -1.33 -215.15, 1.11 -221.75" stroke="#1e1e1e" stroke-width="1" fill="none"></path></g></g><mask></mask><g stroke-linecap="round"><g transform="translate(115.82289841830152 435.15832120378764) rotate(0 -0.5555555555556566 -119.76190476190504)"><path d="M0 0 C-0.27 -58.65, -0.54 -117.3, -1.11 -239.52 M0 0 C-0.37 -79.63, -0.74 -159.27, -1.11 -239.52" stroke="#1e1e1e" stroke-width="1" fill="none"></path></g><g transform="translate(115.82289841830152 435.15832120378764) rotate(0 -0.5555555555556566 -119.76190476190504)"><path d="M7.55 -216.07 C5.43 -221.81, 3.31 -227.56, -1.11 -239.52 M7.55 -216.07 C4.67 -223.87, 1.79 -231.67, -1.11 -239.52" stroke="#1e1e1e" stroke-width="1" fill="none"></path></g><g transform="translate(115.82289841830152 435.15832120378764) rotate(0 -0.5555555555556566 -119.76190476190504)"><path d="M-9.55 -215.99 C-7.49 -221.75, -5.42 -227.52, -1.11 -239.52 M-9.55 -215.99 C-6.75 -223.82, -3.94 -231.64, -1.11 -239.52" stroke="#1e1e1e" stroke-width="1" fill="none"></path></g></g><mask></mask><g stroke-linecap="round"><g transform="translate(161.53718413258775 433.72974977521517) rotate(0 0 -134.2063492063494)"><path d="M0 0 C0 -94.18, 0 -188.36, 0 -268.41 M0 0 C0 -75.77, 0 -151.55, 0 -268.41" stroke="#1e1e1e" stroke-width="1" fill="none"></path></g><g transform="translate(161.53718413258775 433.72974977521517) rotate(0 0 -134.2063492063494)"><path d="M8.55 -244.92 C5.55 -253.16, 2.55 -261.41, 0 -268.41 M8.55 -244.92 C6.14 -251.55, 3.72 -258.18, 0 -268.41" stroke="#1e1e1e" stroke-width="1" fill="none"></path></g><g transform="translate(161.53718413258775 433.72974977521517) rotate(0 0 -134.2063492063494)"><path d="M-8.55 -244.92 C-5.55 -253.16, -2.55 -261.41, 0 -268.41 M-8.55 -244.92 C-6.14 -251.55, -3.72 -258.18, 0 -268.41" stroke="#1e1e1e" stroke-width="1" fill="none"></path></g></g><mask></mask><g stroke-linecap="round"><g transform="translate(205.82289841830334 432.3011783466445) rotate(0 0 -148.65079365079373)"><path d="M0 0 C0 -114.6, 0 -229.2, 0 -297.3 M0 0 C0 -102.33, 0 -204.67, 0 -297.3" stroke="#1e1e1e" stroke-width="1" fill="none"></path></g><g transform="translate(205.82289841830334 432.3011783466445) rotate(0 0 -148.65079365079373)"><path d="M8.55 -273.81 C5.25 -282.86, 1.96 -291.92, 0 -297.3 M8.55 -273.81 C5.61 -281.9, 2.66 -289.98, 0 -297.3" stroke="#1e1e1e" stroke-width="1" fill="none"></path></g><g transform="translate(205.82289841830334 432.3011783466445) rotate(0 0 -148.65079365079373)"><path d="M-8.55 -273.81 C-5.25 -282.86, -1.96 -291.92, 0 -297.3 M-8.55 -273.81 C-5.61 -281.9, -2.66 -289.98, 0 -297.3" stroke="#1e1e1e" stroke-width="1" fill="none"></path></g></g><mask></mask><g stroke-linecap="round"><g transform="translate(249.39432698972905 432.3011783466445) rotate(0 -0.5555555555556566 -159.76190476190504)"><path d="M0 0 C-0.42 -119.62, -0.83 -239.25, -1.11 -319.52 M0 0 C-0.33 -96.29, -0.67 -192.58, -1.11 -319.52" stroke="#1e1e1e" stroke-width="1" fill="none"></path></g><g transform="translate(249.39432698972905 432.3011783466445) rotate(0 -0.5555555555556566 -159.76190476190504)"><path d="M7.52 -296.06 C4.29 -304.85, 1.06 -313.63, -1.11 -319.52 M7.52 -296.06 C4.92 -303.13, 2.32 -310.2, -1.11 -319.52" stroke="#1e1e1e" stroke-width="1" fill="none"></path></g><g transform="translate(249.39432698972905 432.3011783466445) rotate(0 -0.5555555555556566 -159.76190476190504)"><path d="M-9.58 -296 C-6.41 -304.81, -3.24 -313.61, -1.11 -319.52 M-9.58 -296 C-7.03 -303.09, -4.48 -310.18, -1.11 -319.52" stroke="#1e1e1e" stroke-width="1" fill="none"></path></g></g><mask></mask><g stroke-linecap="round"><g transform="translate(294.9027871538765 432.3011783466445) rotate(0 -1.666666666666515 -170.8730158730159)"><path d="M0 0 C-0.79 -81.27, -1.59 -162.55, -3.33 -341.75 M0 0 C-0.86 -87.67, -1.71 -175.35, -3.33 -341.75" stroke="#1e1e1e" stroke-width="1" fill="none"></path></g><g transform="translate(294.9027871538765 432.3011783466445) rotate(0 -1.666666666666515 -170.8730158730159)"><path d="M5.45 -318.34 C3.36 -323.91, 1.27 -329.47, -3.33 -341.75 M5.45 -318.34 C3.19 -324.34, 0.94 -330.35, -3.33 -341.75" stroke="#1e1e1e" stroke-width="1" fill="none"></path></g><g transform="translate(294.9027871538765 432.3011783466445) rotate(0 -1.666666666666515 -170.8730158730159)"><path d="M-11.65 -318.17 C-9.68 -323.78, -7.7 -329.38, -3.33 -341.75 M-11.65 -318.17 C-9.52 -324.22, -7.38 -330.27, -3.33 -341.75" stroke="#1e1e1e" stroke-width="1" fill="none"></path></g></g><mask></mask><g stroke-linecap="round"><g transform="translate(337.9657555611584 430.87260691807387) rotate(0 -2.7777777777778283 -178.09523809523807)"><path d="M0 0 C-2.05 -131.27, -4.09 -262.54, -5.56 -356.19 M0 0 C-1.13 -72.7, -2.27 -145.4, -5.56 -356.19" stroke="#1e1e1e" stroke-width="1" fill="none"></path></g><g transform="translate(337.9657555611584 430.87260691807387) rotate(0 -2.7777777777778283 -178.09523809523807)"><path d="M3.36 -332.83 C0.07 -341.44, -3.21 -350.05, -5.56 -356.19 M3.36 -332.83 C1.54 -337.6, -0.28 -342.37, -5.56 -356.19" stroke="#1e1e1e" stroke-width="1" fill="none"></path></g><g transform="translate(337.9657555611584 430.87260691807387) rotate(0 -2.7777777777778283 -178.09523809523807)"><path d="M-13.74 -332.57 C-10.72 -341.27, -7.71 -349.98, -5.56 -356.19 M-13.74 -332.57 C-12.07 -337.39, -10.4 -342.21, -5.56 -356.19" stroke="#1e1e1e" stroke-width="1" fill="none"></path></g></g><mask></mask><g stroke-linecap="round"><g transform="translate(382.25146984687217 429.4440354895014) rotate(0 0 -186.98412698412676)"><path d="M0 0 C0 -115.92, 0 -231.84, 0 -373.97 M0 0 C0 -112.82, 0 -225.65, 0 -373.97" stroke="#1e1e1e" stroke-width="1" fill="none"></path></g><g transform="translate(382.25146984687217 429.4440354895014) rotate(0 0 -186.98412698412676)"><path d="M8.55 -350.48 C5.9 -357.76, 3.25 -365.04, 0 -373.97 M8.55 -350.48 C5.97 -357.56, 3.39 -364.65, 0 -373.97" stroke="#1e1e1e" stroke-width="1" fill="none"></path></g><g transform="translate(382.25146984687217 429.4440354895014) rotate(0 0 -186.98412698412676)"><path d="M-8.55 -350.48 C-5.9 -357.76, -3.25 -365.04, 0 -373.97 M-8.55 -350.48 C-5.97 -357.56, -3.39 -364.65, 0 -373.97" stroke="#1e1e1e" stroke-width="1" fill="none"></path></g></g><mask></mask><g stroke-linecap="round"><g transform="translate(422.25146984687217 430.87260691807205) rotate(0 0.5555555555556566 -188.65079365079373)"><path d="M0 0 C0.37 -126.15, 0.74 -252.31, 1.11 -377.3 M0 0 C0.27 -91.41, 0.54 -182.82, 1.11 -377.3" stroke="#1e1e1e" stroke-width="1" fill="none"></path></g><g transform="translate(422.25146984687217 430.87260691807205) rotate(0 0.5555555555556566 -188.65079365079373)"><path d="M9.59 -353.78 C6.76 -361.65, 3.92 -369.51, 1.11 -377.3 M9.59 -353.78 C7.54 -359.48, 5.48 -365.18, 1.11 -377.3" stroke="#1e1e1e" stroke-width="1" fill="none"></path></g><g transform="translate(422.25146984687217 430.87260691807205) rotate(0 0.5555555555556566 -188.65079365079373)"><path d="M-7.51 -353.83 C-4.63 -361.68, -1.74 -369.53, 1.11 -377.3 M-7.51 -353.83 C-5.42 -359.52, -3.33 -365.21, 1.11 -377.3" stroke="#1e1e1e" stroke-width="1" fill="none"></path></g></g><mask></mask><g stroke-linecap="round"><g transform="translate(465.1086127040153 430.87260691807387) rotate(0 -1.1111111111113132 -188.65079365079373)"><path d="M0 0 C-0.71 -121.07, -1.43 -242.13, -2.22 -377.3 M0 0 C-0.72 -122.97, -1.45 -245.93, -2.22 -377.3" stroke="#1e1e1e" stroke-width="1" fill="none"></path></g><g transform="translate(465.1086127040153 430.87260691807387) rotate(0 -1.1111111111113132 -188.65079365079373)"><path d="M6.47 -353.86 C3.68 -361.38, 0.89 -368.9, -2.22 -377.3 M6.47 -353.86 C3.63 -361.5, 0.8 -369.14, -2.22 -377.3" stroke="#1e1e1e" stroke-width="1" fill="none"></path></g><g transform="translate(465.1086127040153 430.87260691807387) rotate(0 -1.1111111111113132 -188.65079365079373)"><path d="M-10.63 -353.76 C-7.94 -361.31, -5.24 -368.87, -2.22 -377.3 M-10.63 -353.76 C-7.89 -361.43, -5.15 -369.1, -2.22 -377.3" stroke="#1e1e1e" stroke-width="1" fill="none"></path></g></g><mask></mask><g stroke-linecap="round"><g transform="translate(510.8228984183015 429.4440354895014) rotate(0 -2.7777777777778283 -187.53968253968242)"><path d="M0 0 C-1.85 -125.19, -3.71 -250.38, -5.56 -375.08 M0 0 C-1.29 -86.89, -2.57 -173.79, -5.56 -375.08" stroke="#1e1e1e" stroke-width="1" fill="none"></path></g><g transform="translate(510.8228984183015 429.4440354895014) rotate(0 -2.7777777777778283 -187.53968253968242)"><path d="M3.34 -351.72 C0.37 -359.51, -2.6 -367.31, -5.56 -375.08 M3.34 -351.72 C1.28 -357.13, -0.78 -362.54, -5.56 -375.08" stroke="#1e1e1e" stroke-width="1" fill="none"></path></g><g transform="translate(510.8228984183015 429.4440354895014) rotate(0 -2.7777777777778283 -187.53968253968242)"><path d="M-13.76 -351.46 C-11.02 -359.35, -8.28 -367.23, -5.56 -375.08 M-13.76 -351.46 C-11.86 -356.93, -9.96 -362.41, -5.56 -375.08" stroke="#1e1e1e" stroke-width="1" fill="none"></path></g></g><mask></mask><g stroke-linecap="round"><g transform="translate(555.1086127040171 429.12657517204025) rotate(0 -5 -183.65079365079373)"><path d="M0 0 C-3 -110.36, -6.01 -220.71, -10 -367.3 M0 0 C-2.9 -106.34, -5.79 -212.68, -10 -367.3" stroke="#1e1e1e" stroke-width="1" fill="none"></path></g><g transform="translate(555.1086127040171 429.12657517204025) rotate(0 -5 -183.65079365079373)"><path d="M-0.81 -344.05 C-3.57 -351.04, -6.33 -358.02, -10 -367.3 M-0.81 -344.05 C-3.47 -350.78, -6.13 -357.51, -10 -367.3" stroke="#1e1e1e" stroke-width="1" fill="none"></path></g><g transform="translate(555.1086127040171 429.12657517204025) rotate(0 -5 -183.65079365079373)"><path d="M-17.91 -343.59 C-15.53 -350.71, -13.16 -357.84, -10 -367.3 M-17.91 -343.59 C-15.62 -350.45, -13.33 -357.32, -10 -367.3" stroke="#1e1e1e" stroke-width="1" fill="none"></path></g></g><mask></mask><g transform="translate(44.977931383054965 225.73859445521157) rotate(0 350 -89.28571428571422)" stroke="none"><path fill="#1e1e1e" d="M -0.76,-2.29 Q -0.76,-2.29 0.38,-2.68 1.54,-3.07 3.24,-4.05 4.95,-5.03 6.04,-5.97 7.12,-6.91 8.44,-7.70 9.77,-8.48 11.15,-9.18 12.53,-9.89 13.71,-10.30 14.90,-10.72 16.32,-11.45 17.75,-12.18 19.33,-12.97 20.91,-13.75 22.40,-14.49 23.90,-15.23 25.36,-15.96 26.82,-16.68 28.26,-17.39 29.71,-18.11 31.14,-18.82 32.58,-19.53 34.01,-20.24 35.44,-20.95 36.88,-21.66 38.31,-22.38 40.27,-23.06 42.24,-23.74 43.80,-24.42 45.36,-25.10 46.84,-25.81 48.32,-26.52 50.63,-27.55 52.94,-28.57 54.64,-29.73 56.34,-30.89 58.49,-31.88 60.63,-32.88 62.29,-33.71 63.94,-34.55 65.45,-35.34 66.96,-36.14 68.28,-37.20 69.61,-38.25 71.11,-39.23 72.62,-40.21 74.08,-41.06 75.54,-41.90 77.49,-42.66 79.45,-43.42 81.01,-44.14 82.57,-44.87 83.91,-45.89 85.26,-46.91 86.78,-47.87 88.29,-48.84 89.20,-49.63 90.11,-50.42 91.45,-51.27 92.78,-52.11 93.59,-52.82 94.39,-53.53 95.72,-54.35 97.04,-55.17 98.42,-55.91 99.79,-56.66 101.95,-58.11 104.11,-59.57 106.06,-61.26 108.00,-62.94 108.90,-63.84 109.80,-64.73 111.19,-65.66 112.58,-66.59 114.00,-67.37 115.41,-68.14 116.66,-69.12 117.91,-70.09 118.86,-70.97 119.81,-71.86 121.20,-72.77 122.60,-73.68 124.02,-74.46 125.43,-75.23 127.25,-76.22 129.07,-77.21 130.16,-78.08 131.24,-78.95 132.65,-79.82 134.06,-80.69 135.33,-81.72 136.60,-82.76 137.54,-83.67 138.48,-84.58 139.86,-85.50 141.23,-86.42 142.48,-87.46 143.73,-88.50 145.25,-89.48 146.76,-90.47 148.64,-91.57 150.52,-92.68 152.17,-93.62 153.82,-94.56 155.23,-95.67 156.63,-96.78 157.81,-97.48 158.99,-98.18 160.21,-98.83 161.42,-99.48 162.06,-100.37 162.69,-101.26 165.03,-102.64 167.37,-104.03 169.11,-104.97 170.86,-105.92 172.81,-107.06 174.77,-108.20 176.45,-109.16 178.14,-110.11 179.67,-110.96 181.19,-111.81 183.06,-112.89 184.92,-113.97 187.06,-114.88 189.21,-115.79 190.77,-116.91 192.34,-118.02 194.41,-118.99 196.49,-119.95 198.11,-120.79 199.74,-121.63 201.23,-122.43 202.72,-123.23 204.17,-124.01 205.61,-124.78 207.43,-125.83 209.25,-126.87 210.88,-127.80 212.51,-128.72 214.88,-129.89 217.26,-131.06 218.56,-131.98 219.85,-132.91 221.81,-133.76 223.77,-134.61 225.72,-135.69 227.67,-136.77 229.85,-137.69 232.03,-138.60 233.71,-139.41 235.39,-140.23 237.40,-140.97 239.42,-141.72 240.50,-142.48 241.59,-143.23 243.46,-144.01 245.32,-144.78 247.69,-145.85 250.07,-146.91 251.90,-147.78 253.74,-148.65 255.32,-149.48 256.90,-150.30 258.89,-151.05 260.88,-151.80 262.16,-152.24 263.45,-152.68 265.50,-153.53 267.56,-154.38 268.95,-154.91 270.35,-155.43 272.94,-156.34 275.52,-157.25 277.90,-158.04 280.28,-158.83 281.74,-159.29 283.20,-159.74 285.78,-160.63 288.37,-161.52 290.30,-162.29 292.23,-163.06 294.78,-163.82 297.33,-164.58 300.49,-165.30 303.65,-166.03 305.85,-166.33 308.06,-166.64 310.99,-167.16 313.92,-167.69 314.96,-168.37 316.00,-169.05 317.99,-169.43 319.98,-169.81 322.34,-170.28 324.69,-170.75 327.35,-171.35 330.00,-171.95 332.45,-172.21 334.91,-172.47 337.50,-172.96 340.09,-173.46 342.84,-174.08 345.60,-174.69 348.50,-174.97 351.41,-175.24 353.76,-175.75 356.12,-176.25 358.46,-176.48 360.80,-176.71 363.45,-176.81 366.09,-176.90 368.33,-177.34 370.57,-177.78 373.29,-177.97 376.00,-178.17 378.79,-178.26 381.58,-178.34 383.17,-178.47 384.76,-178.60 386.67,-178.64 388.59,-178.68 390.49,-179.06 392.39,-179.43 394.58,-179.60 396.77,-179.77 399.76,-179.82 402.75,-179.88 405.24,-179.90 407.73,-179.91 410.03,-179.92 412.32,-179.92 414.94,-179.92 417.55,-179.91 420.72,-179.91 423.89,-179.91 426.87,-179.90 429.86,-179.90 432.37,-179.90 434.87,-179.90 438.88,-179.48 442.88,-179.06 446.16,-178.89 449.45,-178.72 452.48,-178.64 455.52,-178.57 458.94,-178.12 462.36,-177.67 464.97,-177.48 467.59,-177.30 470.83,-176.80 474.06,-176.31 475.81,-176.17 477.56,-176.04 480.80,-175.51 484.03,-174.99 485.79,-174.84 487.55,-174.69 491.19,-174.15 494.83,-173.62 497.16,-173.39 499.49,-173.16 503.39,-172.64 507.30,-172.12 509.47,-171.46 511.63,-170.80 515.31,-170.14 518.98,-169.47 520.96,-169.21 522.94,-168.94 527.13,-167.98 531.33,-167.01 533.86,-166.61 536.39,-166.21 538.78,-165.61 541.16,-165.01 544.98,-164.36 548.79,-163.71 551.71,-163.01 554.63,-162.31 557.89,-161.61 561.15,-160.90 565.38,-160.20 569.62,-159.49 572.71,-158.77 575.79,-158.05 579.52,-157.34 583.26,-156.63 587.37,-155.49 591.48,-154.35 593.98,-153.89 596.47,-153.42 599.22,-152.80 601.97,-152.19 605.17,-151.52 608.37,-150.85 611.01,-150.14 613.64,-149.44 616.38,-148.73 619.12,-148.03 622.32,-147.32 625.52,-146.61 628.54,-145.90 631.56,-145.18 634.00,-144.89 636.44,-144.60 638.81,-144.05 641.18,-143.50 644.20,-142.86 647.21,-142.23 650.16,-141.54 653.10,-140.85 655.23,-140.14 657.36,-139.42 659.75,-139.15 662.14,-138.88 663.80,-138.40 665.45,-137.93 667.17,-137.76 668.88,-137.60 670.31,-137.13 671.75,-136.66 672.91,-136.58 674.07,-136.49 675.35,-135.97 676.62,-135.45 678.88,-134.83 681.13,-134.20 682.34,-133.61 683.55,-133.02 684.88,-132.35 686.21,-131.68 688.01,-130.65 689.81,-129.62 690.94,-129.13 692.06,-128.65 693.33,-127.69 694.59,-126.73 695.83,-126.38 697.07,-126.03 698.25,-125.26 699.42,-124.50 700.22,-123.71 701.02,-122.92 701.43,-122.63 701.83,-122.34 702.12,-121.94 702.41,-121.54 702.56,-121.06 702.71,-120.58 702.70,-120.09 702.68,-119.59 702.51,-119.12 702.34,-118.65 702.03,-118.26 701.72,-117.87 701.30,-117.60 700.88,-117.34 700.40,-117.21 699.91,-117.09 699.42,-117.13 698.92,-117.17 698.46,-117.37 698.00,-117.56 697.63,-117.90 697.26,-118.23 697.01,-118.66 696.77,-119.09 696.67,-119.58 696.58,-120.07 696.65,-120.57 696.71,-121.06 696.93,-121.51 697.15,-121.95 697.50,-122.31 697.86,-122.66 698.30,-122.88 698.75,-123.10 699.24,-123.17 699.74,-123.24 700.22,-123.15 700.71,-123.05 701.15,-122.81 701.58,-122.57 701.92,-122.19 702.25,-121.82 702.45,-121.37 702.64,-120.91 702.69,-120.41 702.73,-119.92 702.61,-119.43 702.49,-118.95 702.22,-118.53 701.95,-118.11 701.57,-117.80 701.18,-117.48 700.71,-117.31 700.24,-117.14 699.75,-117.12 699.25,-117.11 698.77,-117.26 698.29,-117.40 698.29,-117.40 698.29,-117.40 696.74,-118.85 695.19,-120.31 693.78,-121.10 692.38,-121.89 691.48,-122.79 690.58,-123.68 689.36,-124.35 688.15,-125.01 687.17,-125.90 686.19,-126.79 685.15,-127.12 684.10,-127.45 682.75,-128.14 681.40,-128.82 679.58,-129.92 677.76,-131.02 675.58,-131.87 673.40,-132.71 671.90,-133.06 670.40,-133.40 669.43,-133.95 668.46,-134.49 666.45,-134.79 664.44,-135.08 663.13,-135.68 661.82,-136.28 659.17,-136.60 656.52,-136.93 654.51,-137.61 652.51,-138.30 649.59,-138.98 646.67,-139.66 643.63,-140.30 640.58,-140.94 638.35,-141.47 636.12,-142.00 633.54,-142.31 630.96,-142.63 627.95,-143.34 624.95,-144.05 621.71,-144.77 618.46,-145.48 615.71,-146.19 612.96,-146.90 610.40,-147.59 607.83,-148.27 604.61,-148.95 601.39,-149.62 598.69,-150.23 595.99,-150.84 593.38,-151.33 590.78,-151.82 586.77,-152.93 582.76,-154.04 578.98,-154.76 575.19,-155.48 572.19,-156.18 569.18,-156.88 564.89,-157.60 560.59,-158.31 557.30,-159.02 554.01,-159.72 551.18,-160.40 548.34,-161.08 544.43,-161.74 540.51,-162.41 538.24,-162.97 535.97,-163.53 533.34,-163.94 530.72,-164.34 526.63,-165.26 522.55,-166.18 520.52,-166.49 518.50,-166.80 514.67,-167.49 510.84,-168.17 508.89,-168.76 506.93,-169.35 503.08,-169.83 499.23,-170.32 496.83,-170.51 494.43,-170.71 490.81,-171.18 487.19,-171.64 485.39,-171.92 483.60,-172.19 480.41,-172.66 477.22,-173.14 475.44,-173.42 473.66,-173.71 470.53,-174.19 467.40,-174.67 464.71,-174.87 462.01,-175.06 458.73,-175.49 455.45,-175.93 452.38,-176.00 449.31,-176.08 445.96,-176.25 442.61,-176.43 438.74,-176.83 434.87,-177.24 432.37,-177.23 429.86,-177.23 426.88,-177.22 423.89,-177.22 420.72,-177.21 417.56,-177.20 414.95,-177.19 412.34,-177.17 410.05,-177.15 407.77,-177.12 405.29,-177.08 402.82,-177.03 399.92,-176.94 397.01,-176.84 395.00,-176.65 392.99,-176.47 390.81,-176.01 388.62,-175.56 386.73,-175.56 384.83,-175.57 383.25,-175.63 381.66,-175.70 378.93,-175.62 376.19,-175.53 373.63,-175.35 371.07,-175.17 368.63,-174.70 366.19,-174.24 363.63,-174.14 361.06,-174.04 358.88,-173.83 356.69,-173.61 354.18,-173.07 351.67,-172.52 348.94,-172.26 346.21,-171.99 343.43,-171.34 340.64,-170.69 337.94,-170.14 335.24,-169.58 332.97,-169.30 330.70,-169.02 328.03,-168.35 325.37,-167.68 322.93,-167.10 320.49,-166.51 318.95,-166.35 317.41,-166.19 315.93,-165.58 314.45,-164.98 311.46,-164.42 308.46,-163.86 306.39,-163.54 304.31,-163.22 301.26,-162.48 298.21,-161.73 295.82,-160.97 293.43,-160.20 291.46,-159.33 289.50,-158.45 286.78,-157.40 284.06,-156.34 282.70,-156.09 281.34,-155.84 279.03,-154.97 276.72,-154.09 274.07,-153.01 271.42,-151.93 270.16,-151.64 268.90,-151.35 266.62,-150.29 264.35,-149.23 263.19,-149.03 262.03,-148.84 260.19,-148.10 258.35,-147.36 256.72,-146.60 255.10,-145.85 253.26,-144.94 251.43,-144.03 249.02,-142.84 246.61,-141.65 244.95,-140.98 243.30,-140.31 241.90,-139.61 240.50,-138.91 238.60,-138.16 236.70,-137.41 234.96,-136.63 233.22,-135.86 231.23,-134.96 229.24,-134.07 227.17,-132.82 225.10,-131.58 223.41,-130.83 221.71,-130.07 220.21,-129.16 218.71,-128.24 216.43,-127.01 214.15,-125.77 212.55,-124.92 210.96,-124.06 209.07,-122.84 207.18,-121.62 205.69,-120.93 204.20,-120.25 202.64,-119.55 201.09,-118.84 199.42,-118.07 197.74,-117.31 195.92,-116.43 194.10,-115.54 192.30,-114.25 190.49,-112.95 188.58,-112.05 186.66,-111.15 184.76,-109.90 182.86,-108.66 181.35,-107.89 179.83,-107.12 178.21,-106.21 176.60,-105.30 174.65,-103.98 172.70,-102.67 171.07,-101.70 169.43,-100.74 167.68,-99.55 165.92,-98.37 164.66,-97.08 163.39,-95.79 161.16,-94.85 158.93,-93.91 157.33,-92.59 155.73,-91.27 154.19,-90.37 152.65,-89.46 150.87,-88.16 149.10,-86.85 147.82,-86.03 146.55,-85.21 145.10,-83.93 143.64,-82.65 142.53,-81.98 141.42,-81.31 140.36,-80.42 139.30,-79.53 137.80,-78.24 136.30,-76.96 135.07,-76.25 133.83,-75.54 132.56,-74.62 131.29,-73.70 129.50,-72.41 127.71,-71.12 126.42,-70.40 125.13,-69.69 124.03,-69.02 122.93,-68.34 121.88,-67.44 120.82,-66.54 119.30,-65.23 117.77,-63.93 116.50,-63.21 115.24,-62.50 114.20,-61.85 113.16,-61.20 112.20,-60.32 111.24,-59.44 109.96,-58.21 108.67,-56.99 107.59,-56.22 106.50,-55.45 105.36,-54.81 104.22,-54.17 103.08,-53.41 101.94,-52.64 100.64,-51.96 99.33,-51.27 98.21,-50.65 97.08,-50.03 96.00,-49.28 94.91,-48.53 93.73,-47.88 92.54,-47.24 91.39,-46.45 90.23,-45.66 88.83,-44.84 87.43,-44.02 85.77,-42.78 84.10,-41.54 82.45,-40.81 80.80,-40.08 79.08,-39.34 77.35,-38.60 75.94,-37.87 74.52,-37.13 73.13,-36.31 71.75,-35.50 70.13,-34.27 68.51,-33.04 66.95,-32.31 65.40,-31.59 63.72,-30.79 62.03,-29.98 60.19,-29.05 58.35,-28.11 56.47,-26.67 54.59,-25.23 52.34,-24.01 50.09,-22.79 48.56,-22.07 47.03,-21.35 45.39,-20.60 43.74,-19.86 42.03,-19.11 40.31,-18.36 38.89,-17.64 37.46,-16.92 36.03,-16.20 34.61,-15.48 33.18,-14.76 31.75,-14.03 30.33,-13.31 28.90,-12.58 27.47,-11.83 26.04,-11.09 24.60,-10.32 23.16,-9.55 21.70,-8.71 20.24,-7.87 17.63,-6.52 15.02,-5.18 13.78,-4.48 12.54,-3.79 11.56,-3.22 10.58,-2.65 9.64,-1.93 8.70,-1.22 6.94,-0.68 5.18,-0.13 4.28,0.64 3.38,1.42 2.07,1.86 0.76,2.29 0.48,2.35 0.19,2.41 -0.09,2.40 -0.38,2.39 -0.67,2.31 -0.95,2.22 -1.20,2.08 -1.45,1.93 -1.66,1.73 -1.87,1.53 -2.03,1.28 -2.19,1.03 -2.28,0.76 -2.37,0.48 -2.39,0.19 -2.42,-0.09 -2.37,-0.38 -2.32,-0.67 -2.21,-0.94 -2.09,-1.21 -1.92,-1.44 -1.74,-1.67 -1.52,-1.86 -1.29,-2.04 -1.03,-2.17 -0.76,-2.29 -0.76,-2.29 L -0.76,-2.29 Z"></path></g><g stroke-linecap="round"><g transform="translate(41.19478468680609 229.6761876518458) rotate(0 16.449306128256012 -7.7800772228233654)"><path d="M0 0 C7.43 -3.52, 14.87 -7.03, 32.9 -15.56 M0 0 C9.29 -4.4, 18.58 -8.79, 32.9 -15.56" stroke="#1971c2" stroke-width="1" fill="none"></path></g></g><mask></mask><g stroke-linecap="round"><g transform="translate(73.20424526070838 213.22688152359206) rotate(0 20.89506454129787 -9.558380588040109)"><path d="M0 0 C9.1 -4.16, 18.2 -8.33, 41.79 -19.12 M0 0 C12.19 -5.58, 24.38 -11.15, 41.79 -19.12" stroke="#1971c2" stroke-width="1" fill="none"></path></g></g><mask></mask><g stroke-linecap="round"><g transform="translate(115.88352602591203 194.5546961888158) rotate(0 23.340231668471006 -14.226426921734856)"><path d="M0 0 C10.19 -6.21, 20.38 -12.42, 46.68 -28.45 M0 0 C13.19 -8.04, 26.38 -16.08, 46.68 -28.45" stroke="#1971c2" stroke-width="1" fill="none"></path></g></g><mask></mask><g stroke-linecap="round"><g transform="translate(163.008565204158 166.10184234534609) rotate(0 21.11735246194985 -14.893290683690793)"><path d="M0 0 C11.97 -8.44, 23.94 -16.88, 42.23 -29.79 M0 0 C16.04 -11.31, 32.08 -22.62, 42.23 -29.79" stroke="#1971c2" stroke-width="1" fill="none"></path></g></g><mask></mask><g stroke-linecap="round"><g transform="translate(207.02157349327445 134.0923817714438) rotate(0 21.11735246194985 -11.336683953257307)"><path d="M0 0 C15.25 -8.19, 30.51 -16.38, 42.23 -22.67 M0 0 C13.16 -7.07, 26.32 -14.13, 42.23 -22.67" stroke="#1971c2" stroke-width="1" fill="none"></path></g></g><mask></mask><g stroke-linecap="round"><g transform="translate(250.14543009978297 112.3081655475371) rotate(0 19.78362493803752 -11.781259794561265)"><path d="M0 0 C12.02 -7.16, 24.03 -14.31, 39.57 -23.56 M0 0 C8.23 -4.9, 16.47 -9.81, 39.57 -23.56" stroke="#1971c2" stroke-width="1" fill="none"></path></g></g><mask></mask><g stroke-linecap="round"><g transform="translate(292.8247108649857 88.30107011711152) rotate(0 18.672185334776714 -7.557789302171386)"><path d="M0 0 C8.12 -3.29, 16.24 -6.57, 37.34 -15.12 M0 0 C9.06 -3.67, 18.13 -7.34, 37.34 -15.12" stroke="#1971c2" stroke-width="1" fill="none"></path></g></g><mask></mask><g stroke-linecap="round"><g transform="translate(333.72568826497263 74.07464319537667) rotate(0 24.229383351079377 -8.669228905432192)"><path d="M0 0 C12.31 -4.4, 24.61 -8.81, 48.46 -17.34 M0 0 C12.16 -4.35, 24.32 -8.7, 48.46 -17.34" stroke="#1971c2" stroke-width="1" fill="none"></path></g></g><mask></mask><g stroke-linecap="round"><g transform="translate(383.0736066497402 55.847033701904365) rotate(0 20.228200779341478 -0.8891516826083716)"><path d="M0 0 C11.43 -0.5, 22.85 -1, 40.46 -1.78 M0 0 C15.04 -0.66, 30.08 -1.32, 40.46 -1.78" stroke="#1971c2" stroke-width="1" fill="none"></path></g></g><mask></mask><g stroke-linecap="round"><g transform="translate(423.0854323671183 53.179578654078796) rotate(0 20.228200779341478 -0.44457584130395844)"><path d="M0 0 C11.55 -0.25, 23.09 -0.51, 40.46 -0.89 M0 0 C13.97 -0.31, 27.93 -0.61, 40.46 -0.89" stroke="#1971c2" stroke-width="1" fill="none"></path></g></g><mask></mask><g stroke-linecap="round"><g transform="translate(463.54183392580126 52.73500281277484) rotate(0 20.67277662064589 0.44457584130395844)"><path d="M0 0 C13.44 0.29, 26.88 0.58, 41.35 0.89 M0 0 C15.45 0.33, 30.91 0.66, 41.35 0.89" stroke="#1971c2" stroke-width="1" fill="none"></path></g></g><mask></mask><g stroke-linecap="round"><g transform="translate(504.88738716709304 53.624154495382754) rotate(0 19.783624938037065 4.0011825717379)"><path d="M0 0 C13.85 2.8, 27.7 5.6, 39.57 8 M0 0 C13.58 2.75, 27.16 5.49, 39.57 8" stroke="#1971c2" stroke-width="1" fill="none"></path></g></g><mask></mask><g stroke-linecap="round"><g transform="translate(42.210641575852605 340.36687395683293) rotate(0 54.92184199408575 44.35994930291508)"><path d="M0 0 C33.49 27.05, 66.98 54.1, 109.84 88.72 M0 0 C30.98 25.02, 61.96 50.04, 109.84 88.72" stroke="#1971c2" stroke-width="1" fill="none"></path></g></g><mask></mask><g stroke-linecap="round"><g transform="translate(41.3656901605591 235.5928984604243) rotate(0 120.82805238698802 98.85931558935363)"><path d="M0 0 C86.73 70.96, 173.45 141.91, 241.66 197.72 M0 0 C78.58 64.29, 157.15 128.58, 241.66 197.72" stroke="#1971c2" stroke-width="1" fill="none"></path></g></g><mask></mask><g stroke-linecap="round"><g transform="translate(124.17092885933471 191.65542486515642) rotate(0 125.89776087874907 118.71567384875334)"><path d="M0 0 C96.27 90.78, 192.54 181.56, 251.8 237.43 M0 0 C61.29 57.79, 122.57 115.58, 251.8 237.43" stroke="#1971c2" stroke-width="1" fill="none"></path></g></g><mask></mask><g stroke-linecap="round"><g transform="translate(195.991799159292 144.3381456087136) rotate(0 147.02154626108995 142.7967891846215)"><path d="M0 0 C64.75 62.89, 129.49 125.77, 294.04 285.59 M0 0 C60.87 59.12, 121.74 118.24, 294.04 285.59" stroke="#1971c2" stroke-width="1" fill="none"></path></g></g><mask></mask><g stroke-linecap="round"><g transform="translate(258.51820389101977 105.47038050520678) rotate(0 148.28897338403067 147.02154626108995)"><path d="M0 0 C71.16 70.55, 142.31 141.1, 296.58 294.04 M0 0 C75.85 75.2, 151.71 150.41, 296.58 294.04" stroke="#1971c2" stroke-width="1" fill="none"></path></g></g><mask></mask><g stroke-linecap="round"><g transform="translate(315.129948715693 80.1218380463979) rotate(0 119.5606252640473 117.87072243346029)"><path d="M0 0 C52.03 51.3, 104.06 102.59, 239.12 235.74 M0 0 C74.61 73.56, 149.23 147.12, 239.12 235.74" stroke="#1971c2" stroke-width="1" fill="none"></path></g></g><mask></mask><g stroke-linecap="round"><g transform="translate(362.4472279721349 68.29251823228788) rotate(0 94.63455851288563 83.22771440642146)"><path d="M0 0 C38.65 33.99, 77.31 67.99, 189.27 166.46 M0 0 C54.21 47.67, 108.41 95.35, 189.27 166.46" stroke="#1971c2" stroke-width="1" fill="none"></path></g></g><mask></mask><g stroke-linecap="round"><g transform="translate(412.29936147445915 55.618247002883436) rotate(0 68.86354034643 66.32868610054902)"><path d="M0 0 C32.89 31.68, 65.79 63.36, 137.73 132.66 M0 0 C28.74 27.68, 57.48 55.37, 137.73 132.66" stroke="#1971c2" stroke-width="1" fill="none"></path></g></g><mask></mask><g stroke-linecap="round"><g transform="translate(462.996446392076 54.77329558758993) rotate(0 42.24757076468086 38.022813688212864)"><path d="M0 0 C33.32 29.99, 66.64 59.98, 84.5 76.05 M0 0 C30.55 27.49, 61.1 54.99, 84.5 76.05" stroke="#1971c2" stroke-width="1" fill="none"></path></g></g><mask></mask></svg>